<svg viewBox="0 0 1000 600" xmlns="http://www.w3.org/2000/svg">
  <!-- Background -->
  <rect width="1000" height="600" fill="#ffffff"/>
  
  <!-- Title -->
  <text x="500" y="40" text-anchor="middle" font-size="24" font-weight="bold" fill="#333">Deep Learning Pipeline for Carbon-Negative Concrete</text>

  <!-- Input Section -->
  <g transform="translate(50, 100)">
    <rect x="0" y="0" width="200" height="140" rx="10" fill="#e3f2fd" stroke="#1565c0" stroke-width="2"/>
    <text x="100" y="30" text-anchor="middle" font-size="16" font-weight="bold" fill="#1565c0">Input Data</text>
    <text x="100" y="60" text-anchor="middle" font-size="12">• Traditional Cement</text>
    <text x="100" y="80" text-anchor="middle" font-size="12">• CO₂ Absorbing Materials</text>
    <text x="100" y="100" text-anchor="middle" font-size="12">• Aluminosilicate Materials</text>
    <text x="100" y="120" text-anchor="middle" font-size="12">• Performance Requirements</text>
  </g>

  <!-- VAE Section -->
  <g transform="translate(300, 100)">
    <rect x="0" y="0" width="200" height="140" rx="10" fill="#f3e5f5" stroke="#7b1fa2" stroke-width="2"/>
    <text x="100" y="30" text-anchor="middle" font-size="16" font-weight="bold" fill="#7b1fa2">VAE</text>
    <text x="100" y="60" text-anchor="middle" font-size="12">• Composition Generation</text>
    <text x="100" y="80" text-anchor="middle" font-size="12">• Material Space Exploration</text>
    <text x="100" y="100" text-anchor="middle" font-size="12">• Latent Space Optimization</text>
    <text x="100" y="120" text-anchor="middle" font-size="12">• Novel Material Discovery</text>
  </g>

  <!-- GCN Section -->
  <g transform="translate(550, 100)">
    <rect x="0" y="0" width="200" height="140" rx="10" fill="#fff3e0" stroke="#e65100" stroke-width="2"/>
    <text x="100" y="30" text-anchor="middle" font-size="16" font-weight="bold" fill="#e65100">GCN</text>
    <text x="100" y="60" text-anchor="middle" font-size="12">• Material Property Prediction</text>
    <text x="100" y="80" text-anchor="middle" font-size="12">• Structural Analysis</text>
    <text x="100" y="100" text-anchor="middle" font-size="12">• Component Interaction</text>
    <text x="100" y="120" text-anchor="middle" font-size="12">• Performance Modeling</text>
  </g>

  <!-- Optimization Layer -->
  <g transform="translate(200, 300)">
    <rect x="0" y="0" width="600" height="160" rx="10" fill="#e8f5e9" stroke="#2e7d32" stroke-width="2"/>
    <text x="300" y="30" text-anchor="middle" font-size="18" font-weight="bold" fill="#2e7d32">Deep Learning Optimization</text>
    
    <!-- Left Column -->
    <text x="150" y="60" text-anchor="middle" font-size="14" font-weight="bold">Material Discovery</text>
    <text x="150" y="85" text-anchor="middle" font-size="12">• Biochar Integration</text>
    <text x="150" y="105" text-anchor="middle" font-size="12">• Magnesium Silicate</text>
    <text x="150" y="125" text-anchor="middle" font-size="12">• Olivine Optimization</text>
    
    <!-- Right Column -->
    <text x="450" y="60" text-anchor="middle" font-size="14" font-weight="bold">Performance Targets</text>
    <text x="450" y="85" text-anchor="middle" font-size="12">• CO₂ Sequestration</text>
    <text x="450" y="105" text-anchor="middle" font-size="12">• Strength Requirements</text>
    <text x="450" y="125" text-anchor="middle" font-size="12">• Cost Optimization</text>
  </g>

  <!-- Results Section -->
  <g transform="translate(100, 500)">
    <rect x="0" y="0" width="800" height="80" rx="10" fill="#e1f5fe" stroke="#0277bd" stroke-width="2"/>
    <text x="400" y="35" text-anchor="middle" font-size="16" font-weight="bold" fill="#0277bd">Optimized Carbon-Negative Concrete Formula:</text>
    <text x="400" y="65" text-anchor="middle" font-size="14">435 tonnes CO₂ sequestered per 1000 tonnes | Net: -326.5 tonnes CO₂</text>
  </g>

  <!-- Connecting Arrows -->
  <path d="M 250 170 L 300 170" stroke="#333" stroke-width="2" marker-end="url(#arrowhead)"/>
  <path d="M 500 170 L 550 170" stroke="#333" stroke-width="2" marker-end="url(#arrowhead)"/>
  <path d="M 400 240 L 400 300" stroke="#333" stroke-width="2" marker-end="url(#arrowhead)"/>
  <path d="M 500 460 L 500 500" stroke="#333" stroke-width="2" marker-end="url(#arrowhead)"/>

  <!-- Arrow Marker -->
  <defs>
    <marker id="arrowhead" markerWidth="10" markerHeight="7" refX="9" refY="3.5" orient="auto">
      <polygon points="0 0, 10 3.5, 0 7" fill="#333"/>
    </marker>
  </defs>
</svg>
